HIERARCHY
ROOT Hips
{
	OFFSET 0.00000 0.00000 0.00000
	CHANNELS 6 Xposition Yposition Zposition Zrotation Yrotation Xrotation 
	JOINT LHipJoint
	{
		OFFSET 0 0 0
		CHANNELS 3 Zrotation Yrotation Xrotation
		JOINT LeftUpLeg
		{
			OFFSET 1.48416 -1.82041 0.59464
			CHANNELS 3 Zrotation Yrotation Xrotation
			JOINT LeftLeg
			{
				OFFSET 2.43280 -6.68407 0.00000
				CHANNELS 3 Zrotation Yrotation Xrotation
				JOINT LeftFoot
				{
					OFFSET 2.68325 -7.37216 0.00000
					CHANNELS 3 Zrotation Yrotation Xrotation
					JOINT LeftToeBase
					{
						OFFSET 0.15365 -0.42214 1.91990
						CHANNELS 3 Zrotation Yrotation Xrotation
						End Site
						{
							OFFSET 0.00000 -0.00000 0.99320
						}
					}
				}
			}
		}
	}
	JOINT RHipJoint
	{
		OFFSET 0 0 0
		CHANNELS 3 Zrotation Yrotation Xrotation
		JOINT RightUpLeg
		{
			OFFSET -1.70852 -1.82040 0.59464
			CHANNELS 3 Zrotation Yrotation Xrotation
			JOINT RightLeg
			{
				OFFSET -2.50396 -6.87957 0.00000
				CHANNELS 3 Zrotation Yrotation Xrotation
				JOINT RightFoot
				{
					OFFSET -2.67204 -7.34139 0.00000
					CHANNELS 3 Zrotation Yrotation Xrotation
					JOINT RightToeBase
					{
						OFFSET -0.17346 -0.47657 2.02009
						CHANNELS 3 Zrotation Yrotation Xrotation
						End Site
						{
							OFFSET -0.00000 -0.00000 1.04609
						}
					}
				}
			}
		}
	}
	JOINT LowerBack
	{
		OFFSET 0 0 0
		CHANNELS 3 Zrotation Yrotation Xrotation
		JOINT Spine
		{
			OFFSET -0.01022 1.99636 -0.30653
			CHANNELS 3 Zrotation Yrotation Xrotation
			JOINT Spine1
			{
				OFFSET -0.01683 2.01212 0.04808
				CHANNELS 3 Zrotation Yrotation Xrotation
				JOINT Neck
				{
					OFFSET 0 0 0
					CHANNELS 3 Zrotation Yrotation Xrotation
					JOINT Neck1
					{
						OFFSET -0.03080 1.91178 0.03911
						CHANNELS 3 Zrotation Yrotation Xrotation
						JOINT Head
						{
							OFFSET 0.10605 1.89839 -0.23433
							CHANNELS 3 Zrotation Yrotation Xrotation
							End Site
							{
								OFFSET 0.03474 1.92469 -0.08609
							}
						}
					}
				}
				JOINT LeftShoulder
				{
					OFFSET 0 0 0
					CHANNELS 3 Zrotation Yrotation Xrotation
					JOINT LeftArm
					{
						OFFSET 3.78977 1.27972 -0.24661
						CHANNELS 3 Zrotation Yrotation Xrotation
						JOINT LeftForeArm
						{
							OFFSET 5.64147 -0.00000 -0.00000
							CHANNELS 3 Zrotation Yrotation Xrotation
							JOINT LeftHand
							{
								OFFSET 2.86444 -0.00000 -0.00000
								CHANNELS 3 Zrotation Yrotation Xrotation
								JOINT LeftFingerBase
								{
									OFFSET 0 0 0
									CHANNELS 3 Zrotation Yrotation Xrotation
									JOINT LeftHandIndex1
									{
										OFFSET 0.72212 -0.00000 -0.00000
										CHANNELS 3 Zrotation Yrotation Xrotation
										End Site
										{
											OFFSET 0.58219 -0.00000 -0.00000
										}
									}
								}
								JOINT LThumb
								{
									OFFSET 0 0 0
									CHANNELS 3 Zrotation Yrotation Xrotation
									End Site
									{
										OFFSET 0.59108 -0.00000 0.59108
									}
								}
							}
						}
					}
				}
				JOINT RightShoulder
				{
					OFFSET 0 0 0
					CHANNELS 3 Zrotation Yrotation Xrotation
					JOINT RightArm
					{
						OFFSET -3.41176 1.18605 -0.57927
						CHANNELS 3 Zrotation Yrotation Xrotation
						JOINT RightForeArm
						{
							OFFSET -5.44729 -0.00000 -0.00000
							CHANNELS 3 Zrotation Yrotation Xrotation
							JOINT RightHand
							{
								OFFSET -3.08821 -0.00000 -0.00000
								CHANNELS 3 Zrotation Yrotation Xrotation
								JOINT RightFingerBase
								{
									OFFSET 0 0 0
									CHANNELS 3 Zrotation Yrotation Xrotation
									JOINT RightHandIndex1
									{
										OFFSET -0.82105 -0.00000 -0.00000
										CHANNELS 3 Zrotation Yrotation Xrotation
										End Site
										{
											OFFSET -0.66195 -0.00000 -0.00000
										}
									}
								}
								JOINT RThumb
								{
									OFFSET 0 0 0
									CHANNELS 3 Zrotation Yrotation Xrotation
									End Site
									{
										OFFSET -0.67206 -0.00000 0.67206
									}
								}
							}
						}
					}
				}
			}
		}
	}
}
MOTION
Frames: 12
Frame Time: .0083333
-5.464 17.5468 -17.5752 0 0 0 0 0 0 -21 0 0 0 0 0 0 0 0 0 0 0 0 0 0 21 0 0 0 0 0 0 0 0 0 0 0 0 0 0 0 0 0 0 0 0 0 0 -16 0 0 21 0 0 11 0 0 0 -8 0 0 0 0 0 0 0 0 0 0 0 0 0 0 0 0 0 0 0 0 8 0 0 0 0 0 0 0 0 0 0 0 0 0 0 0 0 0
-5.4640 17.5468 -17.5752 -3.4993 27.3950 -1.0902 0.0000 0.0000 0.0000 -22.8538 14.4490 1.9192 0.2593 3.2763 9.0490 0.9265 -6.6233 -17.1738 0.0615 -1.6000 -4.4013 0.0000 0.0000 0.0000 26.7684 2.7441 -27.0481 -1.2551 -7.1024 20.0191 -0.3692 15.6826 -14.5813 -0.1683 2.6425 -7.2851 1.6828 0.2006 0.6861 -1.4830 0.2923 2.5441 -2.4628 0.2012 2.2419 -5.2060 -5.4986 -2.5496 7.1061 -7.9357 13.5204 2.6303 -3.7380 4.9600 -0.0000 0.0000 0.0000 -87.7267 -4.0022 32.2900 10.2220 -17.0861 -1.5395 -0.0000 0.0000 -26.9236 12.6900 9.9959 2.2383 -7.1250 0.0000 -0.0000 -12.5019 39.9124 1.5966 -0.0000 0.0000 0.0000 91.3701 -2.2973 18.8385 -16.5198 26.2204 -3.8728 0.0000 0.0000 13.9776 -7.8215 8.2455 -1.1286 7.1250 -0.0000 -0.0000 13.7237 -21.7365 7.8895
-5.4421 17.5402 -17.5341 -3.4702 27.5337 -1.0740 0.0000 0.0000 0.0000 -22.8431 14.3903 2.1626 0.2533 3.2382 8.9426 0.9351 -6.5394 -17.2519 0.0964 -2.0020 -5.5113 0.0000 0.0000 0.0000 26.7456 2.8137 -27.0490 -1.2413 -7.0646 19.9068 -0.3615 15.6923 -14.5182 -0.1760 2.7022 -7.4507 1.6420 0.1808 0.6596 -1.4174 0.2645 2.5499 -2.3726 0.1859 2.2605 -5.3186 -5.5158 -2.5335 7.1030 -7.9475 13.4524 2.6476 -3.7509 4.9416 0.0000 0.0000 0.0000 -87.8345 -3.9977 32.1447 10.1960 -17.0456 -1.5319 -0.0000 0.0000 -26.7344 12.7253 10.0649 2.2601 -7.1250 0.0000 -0.0000 -12.4868 39.9840 1.5722 0.0000 0.0000 0.0000 91.2425 -2.2472 18.9821 -16.5192 26.2195 -3.8725 0.0000 0.0000 13.8314 -7.8303 8.1203 -1.1128 7.1250 -0.0000 -0.0000 13.7277 -21.8590 7.8524
-5.4220 17.5339 -17.4937 -3.3967 27.7042 -1.0927 0.0000 0.0000 0.0000 -22.8343 14.3777 2.6185 0.2318 3.0985 8.5532 0.9271 -6.3458 -17.1752 0.1220 -2.2521 -6.2028 0.0000 0.0000 0.0000 26.6574 2.9078 -27.0372 -1.2393 -7.0593 19.8911 -0.3822 15.5420 -14.6246 -0.2027 2.8988 -7.9972 1.5293 0.1499 0.6126 -1.3409 0.2227 2.6368 -2.2310 0.1639 2.3731 -5.5261 -5.5395 -2.6191 7.1792 -7.9718 13.4441 2.7007 -3.7669 4.9665 0.0000 -0.0000 0.0000 -87.9288 -4.0710 32.3601 10.1947 -17.0436 -1.5315 -0.0000 0.0000 -26.9473 12.8106 10.2312 2.3128 -7.1250 0.0000 -0.0000 -12.4505 40.1570 1.5134 0.0000 -0.0000 0.0000 91.1218 -2.0674 18.9949 -16.4992 26.1929 -3.8637 0.0000 0.0000 13.8160 -7.8815 8.0161 -1.1059 7.1250 -0.0000 -0.0000 13.6998 -21.9598 7.8030
-5.3984 17.5271 -17.4530 -3.3547 27.8693 -1.0963 0.0000 0.0000 0.0000 -22.8277 14.3607 3.0387 0.2136 2.9757 8.2110 0.9228 -6.2975 -17.1342 0.1178 -2.2132 -6.0951 0.0000 0.0000 0.0000 26.5792 3.0158 -27.0371 -1.2348 -7.0468 19.8541 -0.4028 15.4245 -14.7477 -0.2040 2.9082 -8.0232 1.5687 0.1376 0.5650 -1.3140 0.2054 2.6869 -2.2256 0.1572 2.4507 -5.6877 -5.5839 -2.6449 7.2785 -8.0304 13.4006 2.7532 -3.7980 4.9718 0.0000 0.0000 0.0000 -87.9861 -4.0715 32.4441 10.2175 -17.0791 -1.5382 -0.0000 0.0000 -27.1619 12.7607 10.2172 2.3004 -7.1250 0.0000 -0.0000 -12.4901 40.1389 1.5241 0.0000 0.0000 0.0000 91.0854 -2.0022 18.8840 -16.5690 26.2860 -3.8945 0.0000 0.0000 13.8344 -7.7522 8.0483 -1.0919 7.1250 -0.0000 -0.0000 13.7893 -21.9316 7.8662
-5.3733 17.5205 -17.4096 -3.1628 28.0201 -1.0092 0.0000 0.0000 0.0000 -22.9741 14.3689 3.4691 0.1935 2.8326 7.8131 0.9130 -6.3208 -17.0421 0.1040 -2.0797 -5.7261 0.0000 0.0000 0.0000 26.2997 3.2506 -27.0087 -1.2325 -7.0405 19.8354 -0.4139 15.3850 -14.8266 -0.1775 2.7138 -7.4829 1.5094 0.1493 0.5171 -1.3779 0.2226 2.7114 -2.2577 0.1662 2.5038 -5.6858 -5.6354 -2.5540 7.3573 -8.1031 13.1974 2.7766 -3.8342 4.9020 -0.0000 0.0000 0.0000 -87.9801 -4.0525 32.5611 10.2498 -17.1294 -1.5477 -0.0000 0.0000 -27.5199 12.9117 10.0532 2.2916 -7.1250 0.0000 -0.0000 -12.3246 39.9877 1.5499 -0.0000 0.0000 0.0000 91.0968 -2.0131 18.8763 -16.6475 26.3908 -3.9294 0.0000 0.0000 13.7937 -7.7135 8.1256 -1.0967 7.1250 -0.0000 -0.0000 13.8104 -21.8567 7.9033
-5.3509 17.5130 -17.3654 -3.0318 28.1321 -0.9904 0.0000 0.0000 0.0000 -23.0235 14.4380 3.9705 0.1714 2.6670 7.3530 0.9045 -6.1976 -16.9614 0.1304 -2.3273 -6.4111 0.0000 0.0000 0.0000 26.1305 3.4125 -26.9597 -1.2308 -7.0358 19.8215 -0.4243 15.3152 -14.8838 -0.1908 2.8132 -7.7591 1.4521 0.1496 0.5593 -1.4313 0.2256 2.7358 -2.2805 0.1675 2.5053 -5.5396 -5.6623 -2.5658 7.2974 -8.1360 13.0971 2.7326 -3.8480 4.8673 0.0000 -0.0000 0.0000 -87.9549 -4.1416 32.5290 10.1890 -17.0347 -1.5299 -0.0000 0.0000 -27.5439 13.0063 10.0249 2.3026 -7.1250 0.0000 -0.0000 -12.2374 39.9671 1.5449 0.0000 -0.0000 0.0000 91.1384 -1.9782 18.9053 -16.6888 26.4457 -3.9477 0.0000 0.0000 13.7056 -7.6249 8.0560 -1.0748 7.1250 -0.0000 -0.0000 13.8793 -21.9270 7.9222
-5.3304 17.5078 -17.3194 -2.9611 28.2136 -0.9929 0.0000 0.0000 0.0000 -22.9975 14.5491 4.5142 0.1466 2.4674 6.7992 0.8886 -6.1254 -16.8098 0.1307 -2.3303 -6.4195 0.0000 0.0000 0.0000 26.0139 3.5990 -26.9164 -1.2339 -7.0443 19.8467 -0.4045 15.4127 -14.7568 -0.1552 2.5384 -6.9962 1.4452 0.1524 0.5957 -1.4473 0.2302 2.7401 -2.2931 0.1697 2.4895 -5.5424 -5.6893 -2.5979 7.2857 -8.1697 13.0929 2.7263 -3.8646 4.8734 0.0000 0.0000 0.0000 -87.9984 -4.2272 32.1237 10.0874 -16.8762 -1.5002 -0.0000 0.0000 -26.9388 12.8272 10.1824 2.3050 -7.1250 0.0000 -0.0000 -12.4255 40.1097 1.5250 0.0000 0.0000 0.0000 91.1748 -1.9538 18.9014 -16.6918 26.4497 -3.9491 0.0000 0.0000 13.7036 -7.7109 7.9537 -1.0733 7.1250 -0.0000 -0.0000 13.8265 -22.0251 7.8583
-5.3070 17.5002 -17.2732 -2.9264 28.3601 -0.9666 0.0000 0.0000 0.0000 -22.9775 14.5791 5.0143 0.1259 2.2868 6.2991 0.8750 -6.0130 -16.6796 0.1307 -2.3301 -6.4189 0.0000 0.0000 0.0000 25.9445 3.6134 -26.9738 -1.2371 -7.0530 19.8725 -0.3694 15.5606 -14.5205 -0.1259 2.2869 -6.2993 1.4988 0.1301 0.5666 -1.4342 0.1994 2.7433 -2.3102 0.1556 2.5079 -5.6500 -5.7124 -2.6031 7.3560 -8.2002 13.0498 2.7636 -3.8813 4.8704 0.0000 0.0000 0.0000 -88.1095 -4.2143 31.7569 10.0577 -16.8297 -1.4916 -0.0000 0.0000 -26.5924 12.8816 10.0686 2.2896 -7.1250 0.0000 -0.0000 -12.3538 40.0006 1.5497 0.0000 0.0000 0.0000 91.1639 -1.8786 18.8403 -16.6432 26.3850 -3.9274 0.0000 0.0000 13.7473 -7.7173 8.0449 -1.0865 7.1250 -0.0000 -0.0000 13.8145 -21.9357 7.8801
-5.2819 17.4915 -17.2261 -2.9278 28.4958 -1.0011 0.0000 0.0000 0.0000 -22.9300 14.6134 5.4878 0.1112 2.1504 5.9214 0.8715 -5.7035 -16.6475 0.2063 -2.9244 -8.0684 0.0000 0.0000 0.0000 25.9077 3.6654 -26.9177 -1.2337 -7.0438 19.8451 -0.3889 15.3753 -14.6001 -0.1808 2.7392 -7.5534 1.5608 0.1449 0.5693 -1.3975 0.2178 2.7534 -2.3071 0.1659 2.5179 -5.7166 -5.7659 -2.5362 7.3877 -8.2704 12.9770 2.7821 -3.9196 4.8456 -0.0000 -0.0000 0.0000 -88.1939 -4.1243 31.8296 10.1062 -16.9056 -1.5057 -0.0000 0.0000 -26.6777 13.1048 9.8457 2.2796 -7.1250 0.0000 -0.0000 -12.1145 39.7959 1.5808 -0.0000 -0.0000 0.0000 91.1308 -1.8161 18.6040 -16.5645 26.2801 -3.8925 0.0000 0.0000 13.9087 -7.7749 8.2697 -1.1250 7.1250 -0.0000 -0.0000 13.7549 -21.7140 7.9157
-5.2598 17.4866 -17.1780 -2.8260 28.6369 -1.0148 0.0000 0.0000 0.0000 -22.9386 14.6215 5.9213 0.1005 2.0443 5.6281 0.8603 -5.6303 -16.5394 0.2199 -3.0187 -8.3308 0.0000 0.0000 0.0000 25.7522 3.8003 -26.7806 -1.2259 -7.0222 19.7811 -0.4216 15.0907 -14.7502 -0.2400 3.1530 -8.7050 1.4810 0.1626 0.6308 -1.3847 0.2425 2.7381 -2.2486 0.1757 2.4682 -5.7031 -5.8200 -2.4177 7.3810 -8.3431 12.8918 2.7774 -3.9587 4.8038 -0.0000 -0.0000 0.0000 -88.2386 -4.0509 31.8078 10.1413 -16.9603 -1.5159 -0.0000 0.0000 -26.6118 12.9182 10.0018 2.2812 -7.1250 0.0000 -0.0000 -12.3079 39.9369 1.5634 -0.0000 -0.0000 0.0000 91.1228 -1.8358 18.3537 -16.5292 26.2329 -3.8769 0.0000 0.0000 14.1134 -7.8006 8.2936 -1.1321 7.1250 -0.0000 -0.0000 13.7346 -21.6899 7.9111
-5.2363 17.4816 -17.1299 -2.7221 28.7993 -0.9450 0.0000 0.0000 0.0000 -22.9616 14.5567 6.2360 0.0940 1.9776 5.4436 0.8496 -5.8406 -16.4329 0.1457 -2.4600 -6.7787 0.0000 0.0000 0.0000 25.5429 4.0735 -26.6697 -1.2137 -6.9886 19.6817 -0.4275 15.0049 -14.7612 -0.1784 2.7208 -7.5024 1.4500 0.1661 0.6455 -1.3861 0.2472 2.6895 -2.2326 0.1762 2.4099 -5.7156 -5.8577 -2.3506 7.3829 -8.3926 12.8325 2.7794 -3.9857 4.7783 0.0000 -0.0000 0.0000 -88.2442 -3.9849 31.7742 10.1677 -17.0014 -1.5236 -0.0000 0.0000 -26.4642 12.7469 10.3648 2.3307 -7.1250 0.0000 -0.0000 -12.5349 40.2849 1.4838 0.0000 -0.0000 0.0000 91.0689 -1.9055 18.4286 -16.5353 26.2410 -3.8796 0.0000 0.0000 14.0467 -7.9229 8.1350 -1.1282 7.1250 -0.0000 -0.0000 13.6605 -21.8423 7.8171
